<svg width="1667" height="600" viewBox="0 0 1667 600" fill="none" xmlns="http://www.w3.org/2000/svg">
<path fill-rule="evenodd" clip-rule="evenodd" d="M1117.5 97.8633C1093.82 102.616 1074.07 121.587 1067.97 145.45C1060.62 174.206 1075.41 205.412 1102.5 218.294C1112.33 222.966 1118.9 224.337 1131 224.232C1144.11 224.12 1154.88 220.816 1165.69 213.587C1187.17 199.216 1197.84 172.863 1192.5 147.341C1187.61 123.95 1168.07 103.819 1145 98.3983C1138.14 96.7853 1124.22 96.5153 1117.5 97.8633ZM691 288.841V470.841H708H725V288.841V106.841H708H691V288.841ZM1119.84 125.697C1112.2 128.225 1107.94 131.003 1102.6 136.944C1096.62 143.59 1093.77 151.22 1093.62 160.909C1093.53 167.759 1093.87 169.199 1097.29 176.105C1101.37 184.378 1105.58 188.66 1114.22 193.365C1121.14 197.129 1133.01 197.988 1141.13 195.314C1150.91 192.097 1159.12 184.769 1163.3 175.531C1165.76 170.093 1166.98 160.104 1165.89 154.254C1162 133.327 1139.31 119.254 1119.84 125.697ZM474 289.364V376.886L492.25 376.614L510.5 376.341L511 345.585L511.5 314.829L527.074 327.585C535.64 334.601 552.608 348.402 564.782 358.255L586.916 376.169L610.958 376.255C624.181 376.302 635 376.085 635 375.772C635 375.248 596.045 343.309 565.695 318.95C558.652 313.297 553.027 308.302 553.195 307.849C553.363 307.396 566.791 296.746 583.035 284.183C599.279 271.62 617.171 257.741 622.794 253.341L633.017 245.341L609.435 245.073L585.852 244.804L548.426 274.861L511 304.917V253.379V201.841H492.5H474V289.364ZM89 226.341V242.841H123.493H157.986L158.243 309.591L158.5 376.341L177.25 376.613L196 376.885V309.876V242.867L230.75 242.604L265.5 242.341L265.775 226.091L266.05 209.841H177.525H89V226.341ZM850.75 210.53C849.109 210.959 849 214.513 849 267.365C849 304.446 848.625 325.491 847.905 328.85C846.562 335.113 841.305 341.055 835.5 342.871C832.912 343.681 822.223 344.284 805.225 344.58L778.95 345.036L779.225 360.688L779.5 376.341L810 376.232C834.325 376.146 842.185 375.782 848.824 374.437C859.353 372.303 866.587 369.112 872.017 364.207C877.524 359.231 880.271 354.797 883.14 346.255C885.46 339.348 885.462 339.274 885.778 274.591L886.095 209.841L869.297 209.957C860.059 210.021 851.712 210.279 850.75 210.53ZM309.326 246.294C291.046 249.684 281.965 257.84 277.247 275.106C274.68 284.5 274.713 335.445 277.292 344.816C280.621 356.913 287.14 364.992 297.594 369.977C308.009 374.944 314.722 375.77 347.082 376.069L376.5 376.341L376.778 362.686L377.055 349.031L349.778 348.67C313.945 348.195 313.393 347.944 312.254 331.591L311.714 323.841H379.953H448.192L447.805 297.091C447.476 274.344 447.155 269.742 445.663 266.341C441.397 256.62 435.904 251.588 425.125 247.529C419.693 245.483 417.734 245.403 368 245.187C328.609 245.017 314.813 245.277 309.326 246.294ZM913.269 290.591C913.755 340.987 914.022 343.473 920.183 355.033C923.975 362.147 928.4 366.197 936.547 370.01C948.678 375.687 953.523 376.182 997.5 376.244C1025.89 376.284 1039.39 375.933 1044 375.035C1060.38 371.844 1070.09 366.275 1075.79 356.806C1082.97 344.853 1083.98 335.982 1083.99 284.591L1084 244.841H1065.5H1047L1046.99 286.591C1046.99 313.476 1046.6 329.765 1045.9 332.341C1044.33 338.146 1039.77 342.456 1033.62 343.943C1030.14 344.784 1019.04 345.181 999 345.181C961.186 345.179 958.002 344.405 952.367 333.841C950.643 330.609 950.476 327.062 950.191 287.591L949.883 244.841H931.355H912.827L913.269 290.591ZM1216.83 245.864C1203.37 248.136 1194.69 252.197 1188.16 259.286C1178.44 269.828 1176.6 277.847 1176.54 309.841C1176.49 337.38 1177.37 344.007 1182.35 353.961C1186.63 362.531 1194.66 369.016 1205.06 372.299C1216.82 376.015 1231.38 376.834 1285.75 376.838L1336 376.841V361.397V345.953L1282.75 345.589C1226.08 345.202 1224.84 345.098 1219.03 340.216C1213.86 335.863 1212.73 329.617 1213.18 307.972C1213.58 288.661 1213.94 286.886 1218.38 282.004C1223.53 276.338 1222.95 276.394 1281.5 275.846L1335.5 275.341L1335.78 260.091L1336.05 244.841L1278.78 244.959C1247.27 245.023 1219.4 245.431 1216.83 245.864ZM1395.58 246.45C1376.48 249.9 1367.05 258.228 1362.46 275.712C1360.52 283.101 1360.14 333.762 1361.96 342.341C1364.55 354.548 1371.96 364.72 1381.98 369.832C1392.13 375.008 1399.43 375.997 1431.75 376.574L1462 377.115V363.049V348.984L1434.75 348.663C1405.41 348.316 1403.66 348.024 1399.83 342.836C1398.55 341.112 1397.78 337.76 1397.34 332.086L1396.7 323.841H1464.91H1533.12L1532.81 296.591C1532.52 271.362 1532.34 269.003 1530.39 264.79C1525.83 254.934 1517.71 249.157 1504.48 246.353C1494.56 244.253 1407.32 244.331 1395.58 246.45ZM1111.24 312.091L1111.5 376.341L1130.25 376.613L1149 376.885V312.363V247.841H1129.99H1110.98L1111.24 312.091ZM320.049 274.147C314.836 275.951 312.674 280.511 312.034 291.054L311.5 299.841H361.575H411.65L411.256 288.591C411.039 282.404 410.693 276.807 410.486 276.153C409.611 273.387 401.813 272.853 363 272.903C335.111 272.939 322.486 273.305 320.049 274.147ZM1405.5 274.222C1399.38 276.97 1397.01 282.491 1397.01 294.091L1397 300.841H1447.14H1497.28L1496.77 289.247C1496 271.785 1500.63 273.389 1450.22 273.108C1417.01 272.923 1407.89 273.15 1405.5 274.222Z" fill="#F4951E"/>
<path d="M778.65 466.374V429.246C778.65 418.162 784.192 412.62 795.276 412.62H823.02L829.038 417.312V423.942H795.582C792.59 423.942 791.094 425.404 791.094 428.328V467.292C791.094 470.216 792.59 471.678 795.582 471.678H829.038V478.308L823.02 483H795.276C784.192 483 778.65 477.458 778.65 466.374ZM841.802 466.374V429.246C841.802 418.162 847.344 412.62 858.428 412.62H881.786C892.87 412.62 898.412 418.162 898.412 429.246V466.374C898.412 477.458 892.87 483 881.786 483H858.428C847.344 483 841.802 477.458 841.802 466.374ZM854.246 467.292C854.246 470.216 855.742 471.678 858.734 471.678H881.48C884.472 471.678 885.968 470.216 885.968 467.292V428.328C885.968 425.404 884.472 423.942 881.48 423.942H858.734C855.742 423.942 854.246 425.404 854.246 428.328V467.292ZM914.74 483V412.62H928.306L959.518 462.804V412.62H971.962V483H958.498L927.184 432.816V483H914.74ZM986.288 478.308V471.678H1017.81C1020.8 471.678 1022.29 470.216 1022.29 467.292V459.54C1022.29 456.956 1021.14 455.426 1018.83 454.95L998.12 450.768C990.232 449.204 986.288 443.9 986.288 434.856V429.246C986.288 418.162 991.83 412.62 1002.91 412.62H1026.68L1032.7 417.312V423.942H1003.22C1000.23 423.942 998.732 425.404 998.732 428.328V435.162C998.732 437.746 999.888 439.276 1002.2 439.752L1022.91 443.832C1030.79 445.464 1034.74 450.768 1034.74 459.744V466.374C1034.74 477.458 1029.2 483 1018.11 483H992.306L986.288 478.308ZM1048.4 466.374V412.62H1060.85V467.292C1060.85 470.216 1062.34 471.678 1065.33 471.678H1086.04C1089.03 471.678 1090.53 470.216 1090.53 467.292V412.62H1102.97V466.374C1102.97 477.458 1097.43 483 1086.35 483H1065.03C1053.94 483 1048.4 477.458 1048.4 466.374ZM1119.74 483V412.62H1132.18V471.678H1164V483H1119.74ZM1159.73 423.942V412.62H1216.55V423.942H1194.41V483H1181.87V423.942H1159.73ZM1215.9 480.552L1237.63 412.62H1257.01L1278.63 480.552L1277.1 483H1266.59L1261.8 467.496H1232.73L1227.83 483H1217.53L1215.9 480.552ZM1236.2 456.174H1258.43L1248.23 423.942H1246.3L1236.2 456.174ZM1289.27 483V412.62H1302.84L1334.05 462.804V412.62H1346.49V483H1333.03L1301.72 432.816V483H1289.27ZM1362.86 466.374V429.246C1362.86 418.162 1368.4 412.62 1379.48 412.62H1407.23L1413.25 417.312V423.942H1379.79C1376.8 423.942 1375.3 425.404 1375.3 428.328V467.292C1375.3 470.216 1376.8 471.678 1379.79 471.678H1413.25V478.308L1407.23 483H1379.48C1368.4 483 1362.86 477.458 1362.86 466.374ZM1420.3 415.068L1421.83 412.62H1432.44L1449.06 444.546L1465.79 412.62H1476.5L1477.93 415.068L1455.39 457.704V483H1442.84V457.704L1420.3 415.068Z" fill="black"/>
</svg>
