<?xml version="1.0" standalone="yes"?>
<svg xmlns="http://www.w3.org/2000/svg" version="1.1" width="400" height="400">
  <rect x="0" y="0" width="400" height="400" style="fill:transparent;shape-rendering:crispEdges;"/>
  <path x="0" y="0" style="fill:#2D3748;shape-rendering:crispEdges;" d="M43.24,43.24 V54.05 H54.05 V43.24 H43.24 Z M54.05,43.24 V54.05 H64.86 V43.24 H54.05 Z M64.86,43.24 V54.05 H75.68 V43.24 H64.86 Z M75.68,43.24 V54.05 H86.49 V43.24 H75.68 Z M86.49,43.24 V54.05 H97.30 V43.24 H86.49 Z M97.30,43.24 V54.05 H108.11 V43.24 H97.30 Z M108.11,43.24 V54.05 H118.92 V43.24 H108.11 Z M140.54,43.24 V54.05 H151.35 V43.24 H140.54 Z M151.35,43.24 V54.05 H162.16 V43.24 H151.35 Z M162.16,43.24 V54.05 H172.97 V43.24 H162.16 Z M172.97,43.24 V54.05 H183.78 V43.24 H172.97 Z M183.78,43.24 V54.05 H194.59 V43.24 H183.78 Z M194.59,43.24 V54.05 H205.41 V43.24 H194.59 Z M237.84,43.24 V54.05 H248.65 V43.24 H237.84 Z M259.46,43.24 V54.05 H270.27 V43.24 H259.46 Z M281.08,43.24 V54.05 H291.89 V43.24 H281.08 Z M291.89,43.24 V54.05 H302.70 V43.24 H291.89 Z M302.70,43.24 V54.05 H313.51 V43.24 H302.70 Z M313.51,43.24 V54.05 H324.32 V43.24 H313.51 Z M324.32,43.24 V54.05 H335.14 V43.24 H324.32 Z M335.14,43.24 V54.05 H345.95 V43.24 H335.14 Z M345.95,43.24 V54.05 H356.76 V43.24 H345.95 Z M43.24,54.05 V64.86 H54.05 V54.05 H43.24 Z M108.11,54.05 V64.86 H118.92 V54.05 H108.11 Z M140.54,54.05 V64.86 H151.35 V54.05 H140.54 Z M151.35,54.05 V64.86 H162.16 V54.05 H151.35 Z M162.16,54.05 V64.86 H172.97 V54.05 H162.16 Z M194.59,54.05 V64.86 H205.41 V54.05 H194.59 Z M216.22,54.05 V64.86 H227.03 V54.05 H216.22 Z M227.03,54.05 V64.86 H237.84 V54.05 H227.03 Z M248.65,54.05 V64.86 H259.46 V54.05 H248.65 Z M281.08,54.05 V64.86 H291.89 V54.05 H281.08 Z M345.95,54.05 V64.86 H356.76 V54.05 H345.95 Z M43.24,64.86 V75.68 H54.05 V64.86 H43.24 Z M64.86,64.86 V75.68 H75.68 V64.86 H64.86 Z M75.68,64.86 V75.68 H86.49 V64.86 H75.68 Z M86.49,64.86 V75.68 H97.30 V64.86 H86.49 Z M108.11,64.86 V75.68 H118.92 V64.86 H108.11 Z M129.73,64.86 V75.68 H140.54 V64.86 H129.73 Z M140.54,64.86 V75.68 H151.35 V64.86 H140.54 Z M151.35,64.86 V75.68 H162.16 V64.86 H151.35 Z M194.59,64.86 V75.68 H205.41 V64.86 H194.59 Z M216.22,64.86 V75.68 H227.03 V64.86 H216.22 Z M227.03,64.86 V75.68 H237.84 V64.86 H227.03 Z M237.84,64.86 V75.68 H248.65 V64.86 H237.84 Z M248.65,64.86 V75.68 H259.46 V64.86 H248.65 Z M259.46,64.86 V75.68 H270.27 V64.86 H259.46 Z M281.08,64.86 V75.68 H291.89 V64.86 H281.08 Z M302.70,64.86 V75.68 H313.51 V64.86 H302.70 Z M313.51,64.86 V75.68 H324.32 V64.86 H313.51 Z M324.32,64.86 V75.68 H335.14 V64.86 H324.32 Z M345.95,64.86 V75.68 H356.76 V64.86 H345.95 Z M43.24,75.68 V86.49 H54.05 V75.68 H43.24 Z M64.86,75.68 V86.49 H75.68 V75.68 H64.86 Z M75.68,75.68 V86.49 H86.49 V75.68 H75.68 Z M86.49,75.68 V86.49 H97.30 V75.68 H86.49 Z M108.11,75.68 V86.49 H118.92 V75.68 H108.11 Z M140.54,75.68 V86.49 H151.35 V75.68 H140.54 Z M172.97,75.68 V86.49 H183.78 V75.68 H172.97 Z M205.41,75.68 V86.49 H216.22 V75.68 H205.41 Z M259.46,75.68 V86.49 H270.27 V75.68 H259.46 Z M281.08,75.68 V86.49 H291.89 V75.68 H281.08 Z M302.70,75.68 V86.49 H313.51 V75.68 H302.70 Z M313.51,75.68 V86.49 H324.32 V75.68 H313.51 Z M324.32,75.68 V86.49 H335.14 V75.68 H324.32 Z M345.95,75.68 V86.49 H356.76 V75.68 H345.95 Z M43.24,86.49 V97.30 H54.05 V86.49 H43.24 Z M64.86,86.49 V97.30 H75.68 V86.49 H64.86 Z M75.68,86.49 V97.30 H86.49 V86.49 H75.68 Z M86.49,86.49 V97.30 H97.30 V86.49 H86.49 Z M108.11,86.49 V97.30 H118.92 V86.49 H108.11 Z M129.73,86.49 V97.30 H140.54 V86.49 H129.73 Z M151.35,86.49 V97.30 H162.16 V86.49 H151.35 Z M162.16,86.49 V97.30 H172.97 V86.49 H162.16 Z M172.97,86.49 V97.30 H183.78 V86.49 H172.97 Z M205.41,86.49 V97.30 H216.22 V86.49 H205.41 Z M216.22,86.49 V97.30 H227.03 V86.49 H216.22 Z M227.03,86.49 V97.30 H237.84 V86.49 H227.03 Z M237.84,86.49 V97.30 H248.65 V86.49 H237.84 Z M248.65,86.49 V97.30 H259.46 V86.49 H248.65 Z M281.08,86.49 V97.30 H291.89 V86.49 H281.08 Z M302.70,86.49 V97.30 H313.51 V86.49 H302.70 Z M313.51,86.49 V97.30 H324.32 V86.49 H313.51 Z M324.32,86.49 V97.30 H335.14 V86.49 H324.32 Z M345.95,86.49 V97.30 H356.76 V86.49 H345.95 Z M43.24,97.30 V108.11 H54.05 V97.30 H43.24 Z M108.11,97.30 V108.11 H118.92 V97.30 H108.11 Z M129.73,97.30 V108.11 H140.54 V97.30 H129.73 Z M183.78,97.30 V108.11 H194.59 V97.30 H183.78 Z M227.03,97.30 V108.11 H237.84 V97.30 H227.03 Z M248.65,97.30 V108.11 H259.46 V97.30 H248.65 Z M281.08,97.30 V108.11 H291.89 V97.30 H281.08 Z M345.95,97.30 V108.11 H356.76 V97.30 H345.95 Z M43.24,108.11 V118.92 H54.05 V108.11 H43.24 Z M54.05,108.11 V118.92 H64.86 V108.11 H54.05 Z M64.86,108.11 V118.92 H75.68 V108.11 H64.86 Z M75.68,108.11 V118.92 H86.49 V108.11 H75.68 Z M86.49,108.11 V118.92 H97.30 V108.11 H86.49 Z M97.30,108.11 V118.92 H108.11 V108.11 H97.30 Z M108.11,108.11 V118.92 H118.92 V108.11 H108.11 Z M129.73,108.11 V118.92 H140.54 V108.11 H129.73 Z M151.35,108.11 V118.92 H162.16 V108.11 H151.35 Z M172.97,108.11 V118.92 H183.78 V108.11 H172.97 Z M194.59,108.11 V118.92 H205.41 V108.11 H194.59 Z M216.22,108.11 V118.92 H227.03 V108.11 H216.22 Z M237.84,108.11 V118.92 H248.65 V108.11 H237.84 Z M259.46,108.11 V118.92 H270.27 V108.11 H259.46 Z M281.08,108.11 V118.92 H291.89 V108.11 H281.08 Z M291.89,108.11 V118.92 H302.70 V108.11 H291.89 Z M302.70,108.11 V118.92 H313.51 V108.11 H302.70 Z M313.51,108.11 V118.92 H324.32 V108.11 H313.51 Z M324.32,108.11 V118.92 H335.14 V108.11 H324.32 Z M335.14,108.11 V118.92 H345.95 V108.11 H335.14 Z M345.95,108.11 V118.92 H356.76 V108.11 H345.95 Z M151.35,118.92 V129.73 H162.16 V118.92 H151.35 Z M162.16,118.92 V129.73 H172.97 V118.92 H162.16 Z M172.97,118.92 V129.73 H183.78 V118.92 H172.97 Z M183.78,118.92 V129.73 H194.59 V118.92 H183.78 Z M194.59,118.92 V129.73 H205.41 V118.92 H194.59 Z M205.41,118.92 V129.73 H216.22 V118.92 H205.41 Z M43.24,129.73 V140.54 H54.05 V129.73 H43.24 Z M75.68,129.73 V140.54 H86.49 V129.73 H75.68 Z M108.11,129.73 V140.54 H118.92 V129.73 H108.11 Z M129.73,129.73 V140.54 H140.54 V129.73 H129.73 Z M140.54,129.73 V140.54 H151.35 V129.73 H140.54 Z M172.97,129.73 V140.54 H183.78 V129.73 H172.97 Z M205.41,129.73 V140.54 H216.22 V129.73 H205.41 Z M227.03,129.73 V140.54 H237.84 V129.73 H227.03 Z M259.46,129.73 V140.54 H270.27 V129.73 H259.46 Z M270.27,129.73 V140.54 H281.08 V129.73 H270.27 Z M291.89,129.73 V140.54 H302.70 V129.73 H291.89 Z M302.70,129.73 V140.54 H313.51 V129.73 H302.70 Z M324.32,129.73 V140.54 H335.14 V129.73 H324.32 Z M43.24,140.54 V151.35 H54.05 V140.54 H43.24 Z M54.05,140.54 V151.35 H64.86 V140.54 H54.05 Z M97.30,140.54 V151.35 H108.11 V140.54 H97.30 Z M129.73,140.54 V151.35 H140.54 V140.54 H129.73 Z M151.35,140.54 V151.35 H162.16 V140.54 H151.35 Z M162.16,140.54 V151.35 H172.97 V140.54 H162.16 Z M237.84,140.54 V151.35 H248.65 V140.54 H237.84 Z M259.46,140.54 V151.35 H270.27 V140.54 H259.46 Z M270.27,140.54 V151.35 H281.08 V140.54 H270.27 Z M291.89,140.54 V151.35 H302.70 V140.54 H291.89 Z M313.51,140.54 V151.35 H324.32 V140.54 H313.51 Z M324.32,140.54 V151.35 H335.14 V140.54 H324.32 Z M335.14,140.54 V151.35 H345.95 V140.54 H335.14 Z M345.95,140.54 V151.35 H356.76 V140.54 H345.95 Z M54.05,151.35 V162.16 H64.86 V151.35 H54.05 Z M86.49,151.35 V162.16 H97.30 V151.35 H86.49 Z M108.11,151.35 V162.16 H118.92 V151.35 H108.11 Z M118.92,151.35 V162.16 H129.73 V151.35 H118.92 Z M172.97,151.35 V162.16 H183.78 V151.35 H172.97 Z M194.59,151.35 V162.16 H205.41 V151.35 H194.59 Z M205.41,151.35 V162.16 H216.22 V151.35 H205.41 Z M216.22,151.35 V162.16 H227.03 V151.35 H216.22 Z M248.65,151.35 V162.16 H259.46 V151.35 H248.65 Z M259.46,151.35 V162.16 H270.27 V151.35 H259.46 Z M291.89,151.35 V162.16 H302.70 V151.35 H291.89 Z M335.14,151.35 V162.16 H345.95 V151.35 H335.14 Z M43.24,162.16 V172.97 H54.05 V162.16 H43.24 Z M54.05,162.16 V172.97 H64.86 V162.16 H54.05 Z M64.86,162.16 V172.97 H75.68 V162.16 H64.86 Z M97.30,162.16 V172.97 H108.11 V162.16 H97.30 Z M118.92,162.16 V172.97 H129.73 V162.16 H118.92 Z M129.73,162.16 V172.97 H140.54 V162.16 H129.73 Z M151.35,162.16 V172.97 H162.16 V162.16 H151.35 Z M183.78,162.16 V172.97 H194.59 V162.16 H183.78 Z M194.59,162.16 V172.97 H205.41 V162.16 H194.59 Z M205.41,162.16 V172.97 H216.22 V162.16 H205.41 Z M216.22,162.16 V172.97 H227.03 V162.16 H216.22 Z M227.03,162.16 V172.97 H237.84 V162.16 H227.03 Z M237.84,162.16 V172.97 H248.65 V162.16 H237.84 Z M259.46,162.16 V172.97 H270.27 V162.16 H259.46 Z M281.08,162.16 V172.97 H291.89 V162.16 H281.08 Z M291.89,162.16 V172.97 H302.70 V162.16 H291.89 Z M313.51,162.16 V172.97 H324.32 V162.16 H313.51 Z M335.14,162.16 V172.97 H345.95 V162.16 H335.14 Z M345.95,162.16 V172.97 H356.76 V162.16 H345.95 Z M54.05,172.97 V183.78 H64.86 V172.97 H54.05 Z M64.86,172.97 V183.78 H75.68 V172.97 H64.86 Z M86.49,172.97 V183.78 H97.30 V172.97 H86.49 Z M108.11,172.97 V183.78 H118.92 V172.97 H108.11 Z M140.54,172.97 V183.78 H151.35 V172.97 H140.54 Z M183.78,172.97 V183.78 H194.59 V172.97 H183.78 Z M194.59,172.97 V183.78 H205.41 V172.97 H194.59 Z M227.03,172.97 V183.78 H237.84 V172.97 H227.03 Z M248.65,172.97 V183.78 H259.46 V172.97 H248.65 Z M270.27,172.97 V183.78 H281.08 V172.97 H270.27 Z M281.08,172.97 V183.78 H291.89 V172.97 H281.08 Z M291.89,172.97 V183.78 H302.70 V172.97 H291.89 Z M313.51,172.97 V183.78 H324.32 V172.97 H313.51 Z M324.32,172.97 V183.78 H335.14 V172.97 H324.32 Z M335.14,172.97 V183.78 H345.95 V172.97 H335.14 Z M43.24,183.78 V194.59 H54.05 V183.78 H43.24 Z M75.68,183.78 V194.59 H86.49 V183.78 H75.68 Z M86.49,183.78 V194.59 H97.30 V183.78 H86.49 Z M97.30,183.78 V194.59 H108.11 V183.78 H97.30 Z M118.92,183.78 V194.59 H129.73 V183.78 H118.92 Z M151.35,183.78 V194.59 H162.16 V183.78 H151.35 Z M172.97,183.78 V194.59 H183.78 V183.78 H172.97 Z M194.59,183.78 V194.59 H205.41 V183.78 H194.59 Z M205.41,183.78 V194.59 H216.22 V183.78 H205.41 Z M216.22,183.78 V194.59 H227.03 V183.78 H216.22 Z M237.84,183.78 V194.59 H248.65 V183.78 H237.84 Z M259.46,183.78 V194.59 H270.27 V183.78 H259.46 Z M270.27,183.78 V194.59 H281.08 V183.78 H270.27 Z M281.08,183.78 V194.59 H291.89 V183.78 H281.08 Z M302.70,183.78 V194.59 H313.51 V183.78 H302.70 Z M345.95,183.78 V194.59 H356.76 V183.78 H345.95 Z M43.24,194.59 V205.41 H54.05 V194.59 H43.24 Z M75.68,194.59 V205.41 H86.49 V194.59 H75.68 Z M86.49,194.59 V205.41 H97.30 V194.59 H86.49 Z M97.30,194.59 V205.41 H108.11 V194.59 H97.30 Z M108.11,194.59 V205.41 H118.92 V194.59 H108.11 Z M129.73,194.59 V205.41 H140.54 V194.59 H129.73 Z M162.16,194.59 V205.41 H172.97 V194.59 H162.16 Z M172.97,194.59 V205.41 H183.78 V194.59 H172.97 Z M194.59,194.59 V205.41 H205.41 V194.59 H194.59 Z M205.41,194.59 V205.41 H216.22 V194.59 H205.41 Z M216.22,194.59 V205.41 H227.03 V194.59 H216.22 Z M227.03,194.59 V205.41 H237.84 V194.59 H227.03 Z M237.84,194.59 V205.41 H248.65 V194.59 H237.84 Z M259.46,194.59 V205.41 H270.27 V194.59 H259.46 Z M291.89,194.59 V205.41 H302.70 V194.59 H291.89 Z M324.32,194.59 V205.41 H335.14 V194.59 H324.32 Z M335.14,194.59 V205.41 H345.95 V194.59 H335.14 Z M345.95,194.59 V205.41 H356.76 V194.59 H345.95 Z M54.05,205.41 V216.22 H64.86 V205.41 H54.05 Z M75.68,205.41 V216.22 H86.49 V205.41 H75.68 Z M97.30,205.41 V216.22 H108.11 V205.41 H97.30 Z M118.92,205.41 V216.22 H129.73 V205.41 H118.92 Z M129.73,205.41 V216.22 H140.54 V205.41 H129.73 Z M162.16,205.41 V216.22 H172.97 V205.41 H162.16 Z M172.97,205.41 V216.22 H183.78 V205.41 H172.97 Z M194.59,205.41 V216.22 H205.41 V205.41 H194.59 Z M205.41,205.41 V216.22 H216.22 V205.41 H205.41 Z M227.03,205.41 V216.22 H237.84 V205.41 H227.03 Z M237.84,205.41 V216.22 H248.65 V205.41 H237.84 Z M259.46,205.41 V216.22 H270.27 V205.41 H259.46 Z M281.08,205.41 V216.22 H291.89 V205.41 H281.08 Z M313.51,205.41 V216.22 H324.32 V205.41 H313.51 Z M335.14,205.41 V216.22 H345.95 V205.41 H335.14 Z M43.24,216.22 V227.03 H54.05 V216.22 H43.24 Z M54.05,216.22 V227.03 H64.86 V216.22 H54.05 Z M64.86,216.22 V227.03 H75.68 V216.22 H64.86 Z M75.68,216.22 V227.03 H86.49 V216.22 H75.68 Z M97.30,216.22 V227.03 H108.11 V216.22 H97.30 Z M108.11,216.22 V227.03 H118.92 V216.22 H108.11 Z M129.73,216.22 V227.03 H140.54 V216.22 H129.73 Z M140.54,216.22 V227.03 H151.35 V216.22 H140.54 Z M162.16,216.22 V227.03 H172.97 V216.22 H162.16 Z M183.78,216.22 V227.03 H194.59 V216.22 H183.78 Z M205.41,216.22 V227.03 H216.22 V216.22 H205.41 Z M227.03,216.22 V227.03 H237.84 V216.22 H227.03 Z M259.46,216.22 V227.03 H270.27 V216.22 H259.46 Z M270.27,216.22 V227.03 H281.08 V216.22 H270.27 Z M281.08,216.22 V227.03 H291.89 V216.22 H281.08 Z M313.51,216.22 V227.03 H324.32 V216.22 H313.51 Z M43.24,227.03 V237.84 H54.05 V227.03 H43.24 Z M54.05,227.03 V237.84 H64.86 V227.03 H54.05 Z M97.30,227.03 V237.84 H108.11 V227.03 H97.30 Z M118.92,227.03 V237.84 H129.73 V227.03 H118.92 Z M172.97,227.03 V237.84 H183.78 V227.03 H172.97 Z M183.78,227.03 V237.84 H194.59 V227.03 H183.78 Z M205.41,227.03 V237.84 H216.22 V227.03 H205.41 Z M216.22,227.03 V237.84 H227.03 V227.03 H216.22 Z M237.84,227.03 V237.84 H248.65 V227.03 H237.84 Z M248.65,227.03 V237.84 H259.46 V227.03 H248.65 Z M270.27,227.03 V237.84 H281.08 V227.03 H270.27 Z M281.08,227.03 V237.84 H291.89 V227.03 H281.08 Z M345.95,227.03 V237.84 H356.76 V227.03 H345.95 Z M43.24,237.84 V248.65 H54.05 V237.84 H43.24 Z M54.05,237.84 V248.65 H64.86 V237.84 H54.05 Z M75.68,237.84 V248.65 H86.49 V237.84 H75.68 Z M108.11,237.84 V248.65 H118.92 V237.84 H108.11 Z M118.92,237.84 V248.65 H129.73 V237.84 H118.92 Z M129.73,237.84 V248.65 H140.54 V237.84 H129.73 Z M140.54,237.84 V248.65 H151.35 V237.84 H140.54 Z M151.35,237.84 V248.65 H162.16 V237.84 H151.35 Z M172.97,237.84 V248.65 H183.78 V237.84 H172.97 Z M194.59,237.84 V248.65 H205.41 V237.84 H194.59 Z M216.22,237.84 V248.65 H227.03 V237.84 H216.22 Z M259.46,237.84 V248.65 H270.27 V237.84 H259.46 Z M302.70,237.84 V248.65 H313.51 V237.84 H302.70 Z M313.51,237.84 V248.65 H324.32 V237.84 H313.51 Z M324.32,237.84 V248.65 H335.14 V237.84 H324.32 Z M64.86,248.65 V259.46 H75.68 V248.65 H64.86 Z M86.49,248.65 V259.46 H97.30 V248.65 H86.49 Z M97.30,248.65 V259.46 H108.11 V248.65 H97.30 Z M118.92,248.65 V259.46 H129.73 V248.65 H118.92 Z M140.54,248.65 V259.46 H151.35 V248.65 H140.54 Z M162.16,248.65 V259.46 H172.97 V248.65 H162.16 Z M227.03,248.65 V259.46 H237.84 V248.65 H227.03 Z M237.84,248.65 V259.46 H248.65 V248.65 H237.84 Z M259.46,248.65 V259.46 H270.27 V248.65 H259.46 Z M270.27,248.65 V259.46 H281.08 V248.65 H270.27 Z M281.08,248.65 V259.46 H291.89 V248.65 H281.08 Z M324.32,248.65 V259.46 H335.14 V248.65 H324.32 Z M97.30,259.46 V270.27 H108.11 V259.46 H97.30 Z M108.11,259.46 V270.27 H118.92 V259.46 H108.11 Z M118.92,259.46 V270.27 H129.73 V259.46 H118.92 Z M172.97,259.46 V270.27 H183.78 V259.46 H172.97 Z M183.78,259.46 V270.27 H194.59 V259.46 H183.78 Z M205.41,259.46 V270.27 H216.22 V259.46 H205.41 Z M216.22,259.46 V270.27 H227.03 V259.46 H216.22 Z M227.03,259.46 V270.27 H237.84 V259.46 H227.03 Z M237.84,259.46 V270.27 H248.65 V259.46 H237.84 Z M248.65,259.46 V270.27 H259.46 V259.46 H248.65 Z M259.46,259.46 V270.27 H270.27 V259.46 H259.46 Z M270.27,259.46 V270.27 H281.08 V259.46 H270.27 Z M281.08,259.46 V270.27 H291.89 V259.46 H281.08 Z M291.89,259.46 V270.27 H302.70 V259.46 H291.89 Z M302.70,259.46 V270.27 H313.51 V259.46 H302.70 Z M313.51,259.46 V270.27 H324.32 V259.46 H313.51 Z M345.95,259.46 V270.27 H356.76 V259.46 H345.95 Z M129.73,270.27 V281.08 H140.54 V270.27 H129.73 Z M140.54,270.27 V281.08 H151.35 V270.27 H140.54 Z M162.16,270.27 V281.08 H172.97 V270.27 H162.16 Z M183.78,270.27 V281.08 H194.59 V270.27 H183.78 Z M194.59,270.27 V281.08 H205.41 V270.27 H194.59 Z M205.41,270.27 V281.08 H216.22 V270.27 H205.41 Z M216.22,270.27 V281.08 H227.03 V270.27 H216.22 Z M227.03,270.27 V281.08 H237.84 V270.27 H227.03 Z M237.84,270.27 V281.08 H248.65 V270.27 H237.84 Z M259.46,270.27 V281.08 H270.27 V270.27 H259.46 Z M302.70,270.27 V281.08 H313.51 V270.27 H302.70 Z M313.51,270.27 V281.08 H324.32 V270.27 H313.51 Z M335.14,270.27 V281.08 H345.95 V270.27 H335.14 Z M345.95,270.27 V281.08 H356.76 V270.27 H345.95 Z M43.24,281.08 V291.89 H54.05 V281.08 H43.24 Z M54.05,281.08 V291.89 H64.86 V281.08 H54.05 Z M64.86,281.08 V291.89 H75.68 V281.08 H64.86 Z M75.68,281.08 V291.89 H86.49 V281.08 H75.68 Z M86.49,281.08 V291.89 H97.30 V281.08 H86.49 Z M97.30,281.08 V291.89 H108.11 V281.08 H97.30 Z M108.11,281.08 V291.89 H118.92 V281.08 H108.11 Z M162.16,281.08 V291.89 H172.97 V281.08 H162.16 Z M172.97,281.08 V291.89 H183.78 V281.08 H172.97 Z M183.78,281.08 V291.89 H194.59 V281.08 H183.78 Z M205.41,281.08 V291.89 H216.22 V281.08 H205.41 Z M248.65,281.08 V291.89 H259.46 V281.08 H248.65 Z M259.46,281.08 V291.89 H270.27 V281.08 H259.46 Z M281.08,281.08 V291.89 H291.89 V281.08 H281.08 Z M302.70,281.08 V291.89 H313.51 V281.08 H302.70 Z M345.95,281.08 V291.89 H356.76 V281.08 H345.95 Z M43.24,291.89 V302.70 H54.05 V291.89 H43.24 Z M108.11,291.89 V302.70 H118.92 V291.89 H108.11 Z M140.54,291.89 V302.70 H151.35 V291.89 H140.54 Z M151.35,291.89 V302.70 H162.16 V291.89 H151.35 Z M172.97,291.89 V302.70 H183.78 V291.89 H172.97 Z M183.78,291.89 V302.70 H194.59 V291.89 H183.78 Z M194.59,291.89 V302.70 H205.41 V291.89 H194.59 Z M205.41,291.89 V302.70 H216.22 V291.89 H205.41 Z M237.84,291.89 V302.70 H248.65 V291.89 H237.84 Z M259.46,291.89 V302.70 H270.27 V291.89 H259.46 Z M302.70,291.89 V302.70 H313.51 V291.89 H302.70 Z M324.32,291.89 V302.70 H335.14 V291.89 H324.32 Z M335.14,291.89 V302.70 H345.95 V291.89 H335.14 Z M43.24,302.70 V313.51 H54.05 V302.70 H43.24 Z M64.86,302.70 V313.51 H75.68 V302.70 H64.86 Z M75.68,302.70 V313.51 H86.49 V302.70 H75.68 Z M86.49,302.70 V313.51 H97.30 V302.70 H86.49 Z M108.11,302.70 V313.51 H118.92 V302.70 H108.11 Z M151.35,302.70 V313.51 H162.16 V302.70 H151.35 Z M162.16,302.70 V313.51 H172.97 V302.70 H162.16 Z M248.65,302.70 V313.51 H259.46 V302.70 H248.65 Z M259.46,302.70 V313.51 H270.27 V302.70 H259.46 Z M270.27,302.70 V313.51 H281.08 V302.70 H270.27 Z M281.08,302.70 V313.51 H291.89 V302.70 H281.08 Z M291.89,302.70 V313.51 H302.70 V302.70 H291.89 Z M302.70,302.70 V313.51 H313.51 V302.70 H302.70 Z M313.51,302.70 V313.51 H324.32 V302.70 H313.51 Z M324.32,302.70 V313.51 H335.14 V302.70 H324.32 Z M345.95,302.70 V313.51 H356.76 V302.70 H345.95 Z M43.24,313.51 V324.32 H54.05 V313.51 H43.24 Z M64.86,313.51 V324.32 H75.68 V313.51 H64.86 Z M75.68,313.51 V324.32 H86.49 V313.51 H75.68 Z M86.49,313.51 V324.32 H97.30 V313.51 H86.49 Z M108.11,313.51 V324.32 H118.92 V313.51 H108.11 Z M129.73,313.51 V324.32 H140.54 V313.51 H129.73 Z M140.54,313.51 V324.32 H151.35 V313.51 H140.54 Z M151.35,313.51 V324.32 H162.16 V313.51 H151.35 Z M162.16,313.51 V324.32 H172.97 V313.51 H162.16 Z M216.22,313.51 V324.32 H227.03 V313.51 H216.22 Z M302.70,313.51 V324.32 H313.51 V313.51 H302.70 Z M313.51,313.51 V324.32 H324.32 V313.51 H313.51 Z M324.32,313.51 V324.32 H335.14 V313.51 H324.32 Z M43.24,324.32 V335.14 H54.05 V324.32 H43.24 Z M64.86,324.32 V335.14 H75.68 V324.32 H64.86 Z M75.68,324.32 V335.14 H86.49 V324.32 H75.68 Z M86.49,324.32 V335.14 H97.30 V324.32 H86.49 Z M108.11,324.32 V335.14 H118.92 V324.32 H108.11 Z M140.54,324.32 V335.14 H151.35 V324.32 H140.54 Z M151.35,324.32 V335.14 H162.16 V324.32 H151.35 Z M194.59,324.32 V335.14 H205.41 V324.32 H194.59 Z M227.03,324.32 V335.14 H237.84 V324.32 H227.03 Z M281.08,324.32 V335.14 H291.89 V324.32 H281.08 Z M43.24,335.14 V345.95 H54.05 V335.14 H43.24 Z M108.11,335.14 V345.95 H118.92 V335.14 H108.11 Z M151.35,335.14 V345.95 H162.16 V335.14 H151.35 Z M162.16,335.14 V345.95 H172.97 V335.14 H162.16 Z M194.59,335.14 V345.95 H205.41 V335.14 H194.59 Z M227.03,335.14 V345.95 H237.84 V335.14 H227.03 Z M237.84,335.14 V345.95 H248.65 V335.14 H237.84 Z M248.65,335.14 V345.95 H259.46 V335.14 H248.65 Z M270.27,335.14 V345.95 H281.08 V335.14 H270.27 Z M281.08,335.14 V345.95 H291.89 V335.14 H281.08 Z M291.89,335.14 V345.95 H302.70 V335.14 H291.89 Z M335.14,335.14 V345.95 H345.95 V335.14 H335.14 Z M345.95,335.14 V345.95 H356.76 V335.14 H345.95 Z M43.24,345.95 V356.76 H54.05 V345.95 H43.24 Z M54.05,345.95 V356.76 H64.86 V345.95 H54.05 Z M64.86,345.95 V356.76 H75.68 V345.95 H64.86 Z M75.68,345.95 V356.76 H86.49 V345.95 H75.68 Z M86.49,345.95 V356.76 H97.30 V345.95 H86.49 Z M97.30,345.95 V356.76 H108.11 V345.95 H97.30 Z M108.11,345.95 V356.76 H118.92 V345.95 H108.11 Z M129.73,345.95 V356.76 H140.54 V345.95 H129.73 Z M140.54,345.95 V356.76 H151.35 V345.95 H140.54 Z M151.35,345.95 V356.76 H162.16 V345.95 H151.35 Z M183.78,345.95 V356.76 H194.59 V345.95 H183.78 Z M194.59,345.95 V356.76 H205.41 V345.95 H194.59 Z M216.22,345.95 V356.76 H227.03 V345.95 H216.22 Z M227.03,345.95 V356.76 H237.84 V345.95 H227.03 Z M237.84,345.95 V356.76 H248.65 V345.95 H237.84 Z M248.65,345.95 V356.76 H259.46 V345.95 H248.65 Z M259.46,345.95 V356.76 H270.27 V345.95 H259.46 Z M270.27,345.95 V356.76 H281.08 V345.95 H270.27 Z M281.08,345.95 V356.76 H291.89 V345.95 H281.08 Z M302.70,345.95 V356.76 H313.51 V345.95 H302.70 Z M324.32,345.95 V356.76 H335.14 V345.95 H324.32 Z M345.95,345.95 V356.76 H356.76 V345.95 H345.95 Z " /></svg>